<mxfile host="app.diagrams.net" modified="2023-03-26T08:48:15.248Z" agent="Mozilla/5.0 (Windows NT 10.0; Win64; x64) AppleWebKit/537.36 (KHTML, like Gecko) Chrome/111.0.0.0 Safari/537.36 Edg/111.0.1661.51" version="21.1.1" etag="wMEHIpNNbI0YbzuKhK9K" type="github">
  <diagram name="第 1 页" id="d08WFWvQMVf1bM01f9a6">
    <mxGraphModel>
      <root>
        <mxCell id="0" />
        <mxCell id="1" parent="0" />
      </root>
    </mxGraphModel>
  </diagram>
</mxfile>
